<svg width="293" height="40" viewBox="0 0 293 40" fill="none" xmlns="http://www.w3.org/2000/svg">
<path d="M14.537 24.6185C14.4546 24.6185 14.3721 24.6185 14.2896 24.6185C8.35148 24.6185 3.52674 19.7924 3.52674 13.8557C3.52674 7.91752 8.35148 3.09278 14.2896 3.09278C14.3721 3.09278 14.4546 3.09278 14.537 3.09278V0C14.4546 0 14.3721 0 14.2896 0C6.61952 0 0.43396 6.18556 0.43396 13.8557C0.43396 21.4859 6.61952 27.7113 14.2896 27.7113C14.3721 27.7113 14.4546 27.7113 14.537 27.7113V24.6185Z" fill="#333333"/>
<path d="M14.2896 9.23707C14.3721 9.23707 14.4545 9.23707 14.537 9.23707V6.18552C14.4545 6.18552 14.3721 6.14429 14.2896 6.14429C10.0422 6.14429 6.57825 9.6082 6.57825 13.8556C6.57825 18.103 10.0422 21.5243 14.2896 21.5243C14.3721 21.5243 14.7019 21.5243 14.7844 21.5243C17.3411 21.5243 19.4016 23.5876 19.4016 26.1443C19.4016 28.6996 17.3397 30.7601 14.7844 30.7601C14.7019 30.7601 14.6195 30.7601 14.5356 30.7202V33.8144C14.6195 33.8144 14.7019 33.8144 14.7844 33.8144C19.0318 33.8144 22.4944 30.3903 22.4944 26.1443C22.4944 21.8955 19.0305 18.4329 14.7844 18.4329C14.7019 18.4329 14.3707 18.4742 14.2896 18.4742C11.7329 18.4742 9.6724 16.4123 9.6724 13.8556C9.6724 11.2989 11.7329 9.23707 14.2896 9.23707Z" fill="#333333"/>
<path d="M14.7858 12.29C14.7034 12.29 14.6209 12.29 14.537 12.29V15.3828C14.6209 15.3828 14.7034 15.3828 14.7858 15.3828C20.7638 15.3828 25.5886 20.2076 25.5886 26.1471C25.5886 32.0825 20.7638 36.9086 14.7858 36.9086C14.7034 36.9086 14.6209 36.9086 14.537 36.9086V40H14.7432H14.8257C22.4532 39.9601 28.6388 33.7745 28.6388 26.1471C28.6401 18.4756 22.4546 12.29 14.7858 12.29Z" fill="#333333"/>
<path d="M36.739 18.3478C36.739 23.4729 38.656 25 42.6857 25C43.8594 25 45.3852 24.8422 46.3633 24.6075L45.7764 21.9875C45.1896 22.1818 44.0941 22.2992 43.3117 22.2992C40.7687 22.2992 39.8297 21.831 39.8297 18.3869C39.8297 14.905 40.7687 14.5137 43.3117 14.5137C44.0941 14.5137 45.1883 14.6702 45.7764 14.8658L46.3633 12.2837C45.3852 12.049 43.8594 11.8534 42.6857 11.8534C38.656 11.8547 36.739 13.1862 36.739 18.3478ZM56.7687 24.764H59.9755C58.6453 21.4763 56.7687 16.1191 55.5546 12.1677H51.0554C49.6079 15.6887 47.6517 21.2442 46.5954 24.764H49.6861C49.9209 23.9815 50.1947 23.0047 50.5064 21.9875H55.7098C56.1036 23.0439 56.4557 24.0206 56.7687 24.764ZM53.365 14.6715C53.7562 16.0408 54.3039 17.7622 54.8908 19.4432H51.2523C51.8392 17.7218 52.426 16.0017 52.8955 14.6715H53.365ZM68.5056 19.5228C67.5666 17.1754 66.3147 14.2425 65.2975 12.1677H61.3852V24.764H64.2021V16.2365C65.1019 18.2708 66.3525 21.595 67.1363 23.7076H69.4445C70.3052 21.595 71.5963 18.3478 72.5744 16.2365V24.764H75.3912V12.1677H71.6746C70.6574 14.2425 69.4041 17.1363 68.5056 19.5228ZM87.166 24.764H90.374C89.0439 21.4763 87.166 16.1191 85.9531 12.1677H81.454C80.0065 15.6887 78.0503 21.2442 76.994 24.764H80.0847C80.3194 23.9815 80.5933 23.0047 80.9063 21.9875H86.1096C86.5009 23.0439 86.853 24.0206 87.166 24.764ZM83.7636 14.6715C84.1548 16.0408 84.7025 17.7622 85.2894 19.4432H81.6509C82.2378 17.7218 82.8233 16.0017 83.2928 14.6715H83.7636ZM94.6776 18.4273V14.6715H97.8465C98.6303 14.6715 99.0593 15.2206 99.0593 16.5886C99.0593 17.9187 98.5507 18.4273 97.8087 18.4273H94.6776ZM94.6776 24.764V20.8517H98.8246C101.172 20.8517 102.267 18.8577 102.267 16.5873C102.267 14.0064 101.407 12.1664 98.8246 12.1664H91.7825V24.7627L94.6776 24.764ZM104.028 18.3478C104.028 23.4729 105.945 25 109.975 25C111.187 25 112.674 24.8422 113.652 24.6075L113.065 21.9875C112.479 22.1818 111.422 22.2992 110.601 22.2992C108.058 22.2992 107.119 21.831 107.119 18.3869C107.119 14.905 108.058 14.5137 110.601 14.5137C111.422 14.5137 112.479 14.6702 113.065 14.8658L113.652 12.2837C112.674 12.049 111.187 11.8534 109.975 11.8534C105.944 11.8547 104.028 13.1862 104.028 18.3478ZM126.875 24.764C125.075 19.288 123.784 18.31 122.454 17.8001C123.001 17.2915 124.448 15.4136 126.562 12.1677H123.08C121.476 14.7485 119.676 17.058 118.659 18.1926V12.1677H115.724V24.764H118.659V18.8955C120.654 19.0911 121.826 20.1487 123.432 24.764H126.875ZM140.059 12.1677H136.499C134.934 15.0236 133.252 17.9579 131.491 20.8138V12.1677H128.636V24.764H132.469C134.073 22.1036 135.715 19.2489 137.203 16.4712V24.764H140.059V12.1677ZM154.924 12.1677H151.365C149.838 15.0236 148.118 17.9579 146.356 20.8138V12.1677H143.5V24.764H147.333C148.939 22.1036 150.58 19.2489 152.068 16.4712V24.764H154.924V12.1677ZM146.317 9C146.317 10.7984 147.413 11.5821 149.173 11.5821C151.011 11.5821 152.027 10.7984 152.027 9H150.344C150.344 9.78246 149.954 9.93895 149.252 9.93895C148.507 9.93895 148.155 9.78246 148.155 9H146.317Z" fill="#333333"/>
<path d="M165.905 24.7666H164.359C165.018 23.9154 165.79 22.7534 166.372 21.7113C165.637 19.3886 163.506 14.7857 162 12.3095H163.47C164.668 14.4762 166.216 17.6875 167.183 20.3571C168.5 17.6875 170.008 14.5923 170.781 12.3095H172.136C170.509 16.4494 167.957 21.5166 165.905 24.7666ZM175.655 18.6548H182.27V24.7666H183.547V12.3095H182.27V17.494H175.655V12.3095H174.378V24.7666H175.655V18.6548ZM188.963 23.4137C191.361 19.6994 193.606 15.9464 195.581 12.3108H197.087V24.7679H195.85V14.168C193.877 17.7275 191.633 21.4805 189.429 24.7679H187.688V12.3108H188.963V23.4137ZM207.419 23.6845H202.545V18.6161H207.343C208.618 18.6161 209.16 19.7381 209.16 21.2083C209.16 22.6786 208.734 23.6845 207.419 23.6845ZM207.225 17.5714H202.545V13.3929H207.225C208.541 13.3929 208.889 14.1667 208.889 15.4048C208.889 16.5281 208.539 17.5714 207.225 17.5714ZM207.727 18.0744C209.972 17.8423 210.204 16.7202 210.204 15.2513C210.204 13.7037 209.74 12.3108 207.224 12.3108H201.266V24.7679H207.419C209.432 24.7679 210.553 23.5685 210.553 21.2483C210.553 19.546 210.087 18.1531 207.727 18.0744ZM222.623 12.3095V13.3929H215.39V17.5714H220.533V18.6161H215.39V23.6845H222.623V24.7679H214.111V12.3108H222.623V12.3095ZM226.841 19.0417V13.3929H231.172C232.527 13.3929 233.224 14.4762 233.224 16.3333C233.224 17.9184 232.566 19.0417 231.097 19.0417H226.841ZM226.841 24.7666V20.2024H231.172C233.765 20.2024 234.655 18.3053 234.655 16.3333C234.655 14.2054 233.881 12.3095 231.096 12.3095H225.524V24.7666H226.841ZM237.015 18.4213C237.015 23.4898 238.872 25 242.703 25C243.824 25 245.256 24.8079 246.183 24.497L245.797 23.375C245.023 23.6458 243.708 23.838 242.739 23.838C239.605 23.838 238.408 22.9868 238.408 18.4213C238.408 13.8571 239.607 13.1607 242.739 13.1607C243.708 13.1607 245.023 13.3529 245.797 13.625L246.183 12.4643C245.254 12.1948 243.824 12 242.703 12C238.873 12 237.015 13.3168 237.015 18.4213ZM250.285 23.4137C252.684 19.6994 254.928 15.9464 256.901 12.3108H258.41V24.7679H257.172V14.168C255.2 17.7275 252.954 21.4805 250.751 24.7679H248.97V12.3108H250.286V23.4137H250.285ZM266.497 13.3929H270.83V12.3095H260.885V13.3929H265.181V24.7666H266.497V13.3929ZM281.778 12.3095V13.3929H274.543V17.5714H279.689V18.6161H274.543V23.6845H281.778V24.7679H273.266V12.3108H281.778V12.3095ZM288.626 13.3929H292.921V12.3095H283.016V13.3929H287.311V24.7666H288.626V13.3929Z" fill="#333333"/>
</svg>
