<?xml version="1.0" encoding="UTF-8" standalone="no"?>
<!-- Created with Inkscape (http://www.inkscape.org/) -->

<svg
   width="195.93199mm"
   height="262.41605mm"
   viewBox="0 0 195.93199 262.41605"
   version="1.1"
   id="svg1"
   xml:space="preserve"
   sodipodi:docname="Zavr.svg"
   inkscape:version="1.3 (0e150ed6c4, 2023-07-21)"
   xmlns:inkscape="http://www.inkscape.org/namespaces/inkscape"
   xmlns:sodipodi="http://sodipodi.sourceforge.net/DTD/sodipodi-0.dtd"
   xmlns="http://www.w3.org/2000/svg"
   xmlns:svg="http://www.w3.org/2000/svg"><sodipodi:namedview
     id="namedview1"
     pagecolor="#505050"
     bordercolor="#ffffff"
     borderopacity="1"
     inkscape:showpageshadow="0"
     inkscape:pageopacity="0"
     inkscape:pagecheckerboard="1"
     inkscape:deskcolor="#505050"
     inkscape:document-units="mm"
     showguides="true"
     inkscape:zoom="0.73139029"
     inkscape:cx="378.73076"
     inkscape:cy="479.2243"
     inkscape:window-width="1920"
     inkscape:window-height="1017"
     inkscape:window-x="-8"
     inkscape:window-y="-8"
     inkscape:window-maximized="1"
     inkscape:current-layer="svg1" /><defs
     id="defs1" /><path
     style="display:inline;fill:#6b8f44;fill-opacity:1"
     d="m 34.085597,247.23614 c -8.288305,-1.06068 -14.128215,-2.8269 -21.23672,-6.42282 -7.997414,-4.0456 -13.38649053,-8.66499 -12.80617063,-10.97717 0.3235559,-1.28915 2.09970063,-1.64442 10.95901263,-2.19206 16.248449,-1.0044 23.621548,-2.67466 32.343227,-7.32684 10.33801,-5.51433 17.495288,-11.64158 34.561954,-29.58799 9.979247,-10.49366 14.232972,-14.19832 19.017232,-16.56252 5.065888,-2.50337 9.092788,-2.44866 14.184518,0.19271 8.23599,4.27247 13.60127,14.20726 12.41272,22.98439 -0.3675,2.71388 -1.77736,7.06954 -3.10786,9.60149 -7.1168,13.54329 -24.464698,26.89671 -44.725083,34.42681 -7.103652,2.64019 -13.710176,4.32603 -21.494498,5.48493 -4.6626,0.69415 -15.979192,0.90748 -20.108332,0.37907 z"
     id="path17" /><path
     style="display:inline;fill:#83a85c;fill-opacity:1"
     d="m 68.139638,258.09963 c -0.951873,-1.77952 -0.799759,-6.46075 0.443874,-13.65996 1.660271,-9.61106 1.621753,-13.03317 -0.276957,-24.60625 -0.56717,-3.45704 -1.702114,-10.42075 -0.0068,-13.30492 1.564245,-2.66115 4.784152,-4.14132 9.480049,-4.35792 3.280476,-0.15131 5.829401,0.30818 8.307843,1.49766 3.041779,1.45983 4.647575,3.44669 5.602965,6.93259 0.75099,2.7401 0.59688,9.426 -0.40795,17.69926 -0.4507,3.71078 -1.066566,9.30672 -1.3686,12.43541 -1.389358,14.39203 -3.184018,18.99452 -8.16457,20.93843 -2.667736,1.04122 -10.738369,1.794 -13.609875,-3.5743 z"
     id="path15" /><path
     style="display:inline;fill:#779c50;fill-opacity:1"
     d="m 108.76442,261.75793 c -3.29367,-0.8869 -5.57776,-2.81104 -6.3045,-5.31095 -0.62815,-2.16077 -0.38273,-6.70694 0.66249,-12.27189 2.07407,-11.0428 2.09785,-14.4233 0.18147,-25.79688 -1.32522,-7.86508 -1.36843,-11.26132 -0.17306,-13.60443 1.72669,-3.38459 7.37569,-5.02832 13.1852,-3.8366 8.78456,1.80201 11.84337,8.27049 10.93718,23.12888 -1.38208,22.66141 -3.89693,32.96765 -8.87463,36.36957 -2.38314,1.62871 -6.41628,2.18342 -9.61415,1.3223 z"
     id="path16" /><g
     id="layer4"
     transform="translate(-9.620598,-19.683243)"><path
       style="display:inline;fill:#779c50;fill-opacity:1"
       d="m 149.94694,203.2331 c -2.85601,-0.56241 -3.64668,-0.79614 -5.00347,-1.47906 -2.9246,-1.47206 -5.52599,-4.72426 -8.86708,-11.08539 -5.95765,-11.34286 -9.35721,-23.3624 -9.3457,-33.04288 0.005,-4.53516 0.48116,-7.20327 1.778,-9.97103 1.21051,-2.58351 2.67569,-4.1027 5.12384,-5.3127 1.86368,-0.92112 2.16173,-0.98814 4.39435,-0.98814 2.72116,0 4.0118,0.49518 5.3091,2.03693 1.51471,1.80012 2.11195,3.94633 3.4231,12.30092 1.69252,10.78464 2.80797,14.12366 9.13133,27.33402 4.31595,9.01659 5.02743,10.95312 5.0336,13.70069 0.006,2.5193 -1.21836,4.20114 -3.97382,5.46015 -1.92976,0.88173 -5.29004,1.38386 -7.00325,1.04649 z"
       id="path14"
       transform="translate(-3.6175397,5.7880634)" /><path
       style="display:inline;fill:#8c0000;fill-opacity:1"
       d="m 144.12611,200.89138 c -0.14552,-0.0523 -0.70756,-0.16921 -1.24898,-0.25968 -2.18567,-0.36521 -2.74678,-1.70033 -7.00662,-9.57475 -6.43506,-11.89538 -14.38399,-32.00985 -6.73879,-45.31947 2.73481,-4.54595 11.17981,-6.02465 14.88081,-2.9573 2.23908,1.85573 3.32615,5.24776 5.13924,16.03622 2.01414,11.98477 3.2506,15.8606 7.48865,23.47397 1.31873,2.369 2.65912,4.96212 2.97864,5.76249 0.77388,1.93845 0.79412,4.03005 0.0527,5.44957 -1.72706,3.30677 -8.3544,6.82819 -13.82589,7.34634 -0.80036,0.0758 -1.57427,0.095 -1.71979,0.0426 z"
       id="path13"
       transform="translate(-3.6175397,5.7880634)" /></g><path
     style="display:inline;fill:#7a0000;fill-opacity:1"
     d="m 92.258802,227.04462 c -5.31981,-0.49773 -10.877076,-1.939 -15.091639,-3.91401 -3.384922,-1.58623 -5.865572,-3.3166 -8.355111,-5.8281 -1.931798,-1.94883 -2.488426,-2.722 -3.643964,-5.06158 -1.518056,-3.07355 -2.437917,-6.33668 -3.120325,-11.0691 -0.358976,-2.48945 -0.452212,-5.51883 -0.493484,-16.03395 -0.03763,-9.58672 -0.163528,-14.17096 -0.483218,-17.59479 -1.179206,-12.62913 -1.281948,-14.42854 -1.148131,-20.10833 0.15397,-6.53516 0.56549,-8.73922 2.297116,-12.30312 4.926803,-10.13999 20.185372,-16.74613 37.413806,-16.19818 8.541348,0.27166 15.202888,2.1238 20.446898,5.68494 3.56015,2.41765 6.31558,6.41659 7.3352,10.64553 1.13187,4.69455 1.21576,12.50239 0.25583,23.8125 -0.69843,8.22909 -0.64769,21.33553 0.11317,29.23645 1.40378,14.57694 1.35028,20.04221 -0.24474,25.00313 -2.54934,7.92908 -10.72481,12.43321 -24.96266,13.75274 -3.317778,0.30748 -6.862948,0.29919 -10.318748,-0.0241 z"
     id="path12" /><path
     style="display:inline;fill:#8c0000;fill-opacity:1"
     d="m 103.10798,148.05344 c -5.666518,-1.21397 -16.850566,-7.12375 -21.655729,-11.44314 -1.420133,-1.27657 -2.554902,-3.11433 -2.554902,-4.13766 0,-2.54267 5.186494,-4.52623 14.948953,-5.7172 4.54549,-0.55452 19.024408,-0.48256 22.786338,0.11325 12.14803,1.924 14.31546,5.12758 7.95537,11.75851 -4.18338,4.36153 -10.2039,8.27952 -14.35336,9.34077 -2.39644,0.61291 -4.54447,0.63867 -7.12667,0.0855 z"
     id="path11" /><g
     id="layer2"
     transform="translate(-9.620598,-19.683243)"><path
       style="display:inline;fill:#83a85c;fill-opacity:1"
       d="m 75.583993,209.01495 c -3.748713,-2.16202 -3.398656,-3.04351 -5.316693,-8.39439 -2.586551,-7.21587 -5.374952,-16.91344 -5.380944,-29.23645 -0.0082,-16.87547 3.861259,-28.62604 10.445766,-31.72113 4.595209,-2.16 11.500492,-0.83383 15.26623,2.93191 1.467578,1.46758 2.053433,2.8856 2.06049,4.98727 0.0084,2.50798 -0.508957,4.17219 -3.410309,10.96966 -4.131813,9.68026 -4.828549,12.27638 -4.828528,17.99166 2e-5,5.46521 0.586793,8.55097 4.175878,21.96042 0.824444,3.08026 0.994349,3.25275 1.008747,5.48912 0.01618,2.51264 -0.562055,3.02723 -1.230662,3.64863 -2.458094,2.28455 -9.140974,3.4778 -12.789975,1.3733 z"
       id="path10"
       transform="translate(-3.6175397,5.7880634)" /><path
       style="display:inline;fill:#8c0000;fill-opacity:1"
       d="m 74.335017,204.45364 c -4.113299,-0.71398 -6.60405,-4.47801 -8.664287,-13.09349 -1.625992,-6.79957 -1.954934,-10.02722 -1.954934,-19.18229 0,-7.31839 0.07234,-8.80206 0.593411,-12.17084 1.904068,-12.30996 4.708023,-17.64775 10.696873,-20.36322 6.657379,-3.0186 15.595139,-1.47857 17.820859,3.07063 0.650942,1.33048 0.691936,1.61534 0.557557,3.87423 -0.10525,1.76922 -0.520341,3.81738 -1.512945,7.46524 -0.752345,2.76489 -1.604696,6.09864 -1.894115,7.40833 -1.088523,4.92583 -1.069087,12.07379 0.05333,19.61181 0.30068,2.01934 0.77888,5.21934 1.062667,7.11111 0.63601,4.23976 0.689418,8.74143 0.125949,10.61609 -0.551716,1.83555 -2.128344,3.27879 -4.395828,4.02394 -3.481513,1.1441 -10.218188,2.02254 -12.488534,1.62846 z"
       id="path9"
       transform="translate(-3.6175397,5.7880634)" /></g><g
     id="layer1"
     transform="translate(-9.620598,-19.683243)"><path
       style="display:inline;fill:#7ba054;fill-opacity:1"
       d="M 86.039526,154.67792 C 75.580976,153.69097 69.490042,152.18813 63.47168,149.10966 42.426319,138.3447 34.99736,108.91062 37.741855,93.334378 42.208337,67.984913 71.926058,52.053954 106.78159,49.287471 c 4.36664,-0.346579 15.75625,-0.344823 19.87148,0.0031 17.05624,1.441876 39.63189,6.395188 54.25459,21.458983 5.64845,5.818832 8.75086,11.71727 10.06987,19.145277 1.34325,7.564524 0.55955,23.811989 -7.03472,39.026039 -10.28262,20.59984 -28.12207,22.68287 -74.09079,25.52567 -5.67113,0.35071 -20.972579,0.49942 -23.81249,0.23142 z"
       id="path7" /><path
       style="display:inline;fill:#779c50;fill-opacity:1"
       d="m 150.06869,162.37646 c -15.32934,-8.90429 -22.64822,-12.44661 -30.03021,-17.4218 -3.53471,-2.38227 -6.64785,-5.26981 -7.50519,-6.96131 -2.08075,-4.10524 2.18723,-9.35313 9.48957,-11.66832 3.41005,-1.08115 4.7451,-1.24083 10.31875,-1.23418 8.93985,0.0107 14.89299,1.17898 37.70312,7.39925 10.731,3.37985 34.2258,7.61731 34.925,22.61076 0,3.6891 -1.63187,8.17888 -7.41038,12.51573 -16.91784,12.08464 -31.63575,3.82846 -47.49066,-5.24013 z"
       id="path6" /><path
       style="display:inline;fill:#86ab5e;fill-opacity:1"
       d="m 166.47286,166.51777 c -2.41925,-0.90451 -7.79548,-3.59677 -18.78542,-9.4072 -4.58391,-2.42352 -15.09794,-7.75871 -19.82736,-10.08739 -34.257432,-16.86768 -14.07048,-26.54901 -14.01455,-26.5849 2.18422,-1.40161 5.02528,-2.24922 13.27897,-3.96171 10.29658,-2.13635 11.65836,-2.37162 13.72973,-2.37204 2.77952,-5.7e-4 4.23793,0.47482 9.61133,3.13292 15.25787,7.54774 23.74706,7.47556 35.36121,13.293 9.1327,4.57449 16.3583,10.61742 18.77573,15.70255 1.36762,2.87681 1.26557,4.81569 -0.35033,6.65609 -1.57482,1.66654 -3.82625,1.72968 -5.92498,1.41497 -0.70378,3.53171 -2.53439,6.5691 -5.00415,9.15747 -1.19934,1.19935 -2.43074,2.26002 -2.73645,2.35704 -0.93886,0.298 -12.5778,-3.82482 -13.70815,-3.82482 -0.79555,0 -2.62615,7.43259 -10.40558,4.52402 z"
       id="path5" /><path
       style="display:inline;fill:#d1d1ba;fill-opacity:1"
       d="m 168.84619,145.51737 c -0.84732,-1.96278 -0.70532,-6.09642 0.0136,-11.30487 0.87131,-6.31269 0.69997,-14.55208 1.12226,-14.55208 0.47121,0 5.04022,1.89801 7.35125,3.05377 5.29622,2.6487 10.52128,6.96211 12.89645,10.64634 2.58381,4.00786 3.59827,8.38064 2.56931,11.07493 -2.86366,7.49835 -20.42411,9.25607 -23.95283,1.08191 z"
       id="path8" /><path
       style="display:inline;fill:#c9c9b2;fill-opacity:1"
       d="M 65.256402,76.957436 C 60.6146,76.071972 57.391454,74.613004 55.136996,72.376853 50.632751,67.430596 51.544091,60.081117 50.456133,53.858555 49.43934,48.477611 46.735491,42.204462 41.588782,33.285584 c -1.484235,-2.572075 -2.617301,-4.757995 -2.517923,-4.857601 0.324134,-0.324878 7.811831,-0.371962 10.410672,-0.06546 8.555061,1.008955 15.737392,3.84868 22.610581,8.939696 3.264337,2.417915 9.866619,8.958704 12.892874,12.77279 3.9228,4.944031 6.610778,9.594344 7.370353,12.751016 1.925739,8.003075 -5.033102,11.951448 -13.724146,13.841715 -2.72806,0.593342 -10.859706,0.769475 -13.374791,0.2897 z M 124.84646,61.4838 c -2.08957,-3.854805 -1.90998,-11.773886 -2.94787,-16.675319 -1.12492,-5.312421 -3.84216,-11.505416 -8.83377,-20.133474 l -2.67873,-4.630209 0.72515,-0.167133 c 1.40913,-0.324775 8.01293,-0.224598 10.96421,0.166322 7.82904,1.037015 15.3052,4.070065 21.47136,8.710853 9.35553,7.041179 18.78763,18.995081 20.40663,25.862627 0.86042,3.64981 0.31756,5.659225 -2.20308,8.154719 -3.93849,3.8992 -11.10402,6.142152 -19.31473,6.045892 -6.86449,0.219759 -14.66157,-1.93352 -17.58917,-7.334278 z"
       id="path4" /><path
       style="display:inline;fill:#000000"
       d="m 176.26284,158.79996 c -1.62179,-0.3279 -2.49427,-1.02522 -2.59825,-2.07662 -0.18251,-1.84544 1.51008,-3.07981 3.92305,-2.86101 2.38764,0.2165 4.76021,1.76111 4.76021,3.09901 0,1.37876 -3.35125,2.39136 -6.08501,1.83862 z m 15.60347,-5.68698 c -0.3654,-0.96107 -0.32139,-1.92236 0.16264,-3.55226 0.55452,-1.86727 1.0922,-2.64404 2.13049,-3.07787 1.88244,-0.78653 4.07003,0.65316 4.05906,2.67133 -0.0114,2.09684 -2.7106,4.63749 -4.92689,4.63749 -1.00954,0 -1.20214,-0.0917 -1.4253,-0.67869 z"
       id="path3" /><g
       id="layer3"
       style="display:inline"><path
         style="display:inline;fill:#000000"
         d="M 69.176879,117.71425 C 60.27628,108.34423 61.155293,92.991389 71.067375,84.694857 85.923337,72.260243 109.35432,83.380423 108.16862,103.40615 107.05524,122.2102 84.609143,132.75561 69.176879,117.71425 Z M 148.59029,78.080274 c 14.8559,-12.434599 38.28694,-1.314473 37.10124,18.711293 -0.69904,11.806333 -9.92681,20.953903 -21.5973,21.409583 -19.55453,0.7633 -33.27541,-25.245942 -15.50394,-40.120876 z"
         id="path2" /><path
         style="display:inline;fill:#ffffff;fill-opacity:1"
         d="m 86.907302,108.5904 c -2.289195,-4.66155 0.795136,-11.554406 8.022529,-11.535815 3.713984,0.0096 8.369429,2.75308 8.342579,8.364915 -0.0397,8.30967 -12.393806,11.25776 -16.365108,3.1709 z m 82.034768,-0.79683 c -7.12015,-2.46054 -7.52144,-11.778829 -0.65315,-15.166565 3.83238,-1.890297 11.74524,-0.06999 12.16011,6.969116 0.37706,6.397549 -6.12928,10.055859 -11.50696,8.197449 z"
         id="path1" /></g></g></svg>
